# xmcd
#
# Track frame offsets:
#	150
#	14180
#	27330
#	38793
#	53635
#	72463
#	86318
#	105558
#	117013
#	130303
#	141823
#	152455
#	168393
#	180263
#
# Disc length: 2562 seconds
#
# Revision: 1
# Processed by: cddbd v1.4PL0 Copyright (c) Steve Scherf et al.
# Submitted via: audiograbber 1.81.02
#
DISCID=b00a000e
DTITLE=Camey Doucet - Mom I'm Still Your Little Boy
DYEAR=1997
DGENRE=Zydeco/Cajun
TTITLE0=Mom I'm Still Your Little Boy
TTITLE1=Mr. Big
TTITLE2=Dem Cats Are Back Again
TTITLE3=Laisse Ton Vieux Chien Entrer
TTITLE4=Fondre' Dans Mes Souliers
TTITLE5=Hack A Savoi
TTITLE6=Non Monsier American
TTITLE7=Les Chats Sont La' Encore
TTITLE8=Virgina
TTITLE9=Mom Je Suis Toujours Ton Petite Garcon
TTITLE10=Tiens Mon Ratilier
TTITLE11=La Marche Des Maries
TTITLE12=Tu Vas Pas Pleurer Ce Soir
TTITLE13=L' Ai Ete A La Riviere'
EXTD=
EXTT0=
EXTT1=
EXTT2=
EXTT3=
EXTT4=
EXTT5=
EXTT6=
EXTT7=
EXTT8=
EXTT9=
EXTT10=
EXTT11=
EXTT12=
EXTT13=
PLAYORDER=
